<svg width="33" height="33" viewBox="0 0 33 33" fill="none" xmlns="http://www.w3.org/2000/svg" style="--fill-1: #d6d6d6">
<path d="M10.858 22.0498V13.362H8.84965V11.1357H13.6294V22.0498H10.858Z" fill="#0A0A0A"/>
<path d="M24.0448 13.9536C24.0448 14.9033 23.531 15.744 22.6747 16.2112C23.8734 16.7093 24.6208 17.7525 24.6208 18.9669C24.6208 20.9285 22.877 22.1741 20.1525 22.1741C17.4279 22.1741 15.6842 20.9441 15.6842 19.0137C15.6842 17.7681 16.4937 16.7093 17.7548 16.2112C16.8362 15.6973 16.2446 14.8256 16.2446 13.8759C16.2446 12.132 17.7705 11.0267 20.1369 11.0267C22.5345 11.0267 24.0448 12.1632 24.0448 13.9536ZM18.2997 18.7334C18.2997 19.6521 18.9537 20.1658 20.1525 20.1658C21.3513 20.1658 22.0208 19.6677 22.0208 18.7334C22.0208 17.8305 21.3513 17.3166 20.1525 17.3166C18.9536 17.3166 18.2997 17.8304 18.2997 18.7334ZM18.5801 14.1093C18.5801 14.8879 19.1405 15.3237 20.1525 15.3237C21.1645 15.3237 21.7249 14.8878 21.7249 14.1093C21.7249 13.2999 21.1645 12.8483 20.1525 12.8483C19.1404 12.8483 18.5801 13.2999 18.5801 14.1093Z" fill="#0A0A0A"/>
<path d="M29.2323 12.3677C29.6931 13.7276 29.9268 15.1499 29.9268 16.6005C29.9268 23.8743 24.0091 29.792 16.7353 29.792C9.46144 29.792 3.54364 23.8743 3.54364 16.6005C3.54364 9.32658 9.46134 3.40907 16.7352 3.40907C18.186 3.40907 19.6083 3.64261 20.9679 4.10354V1.16795C19.5946 0.791473 18.1762 0.600464 16.7353 0.600464C7.91292 0.600464 0.735321 7.77807 0.735321 16.6005C0.735321 25.423 7.91292 32.6006 16.7353 32.6006C25.5576 32.6006 32.7351 25.423 32.7351 16.6005C32.7351 15.1597 32.5442 13.7412 32.1677 12.3677H29.2323Z" fill="#F62828"/>
<path d="M28.4339 4.8927V1.82477H26.2278V4.8927H23.1783V7.0986H26.2278V10.1664H28.4339V7.0986H31.5017V4.8927H28.4339Z" fill="#0A0A0A"/>
</svg>